<mxfile host="app.diagrams.net" modified="2024-01-18T06:10:09.273Z" agent="Mozilla/5.0 (Windows NT 10.0; Win64; x64) AppleWebKit/537.36 (KHTML, like Gecko) Chrome/120.0.0.0 Safari/537.36" version="22.1.21" etag="tp_x2OGTVrgAJ8Qz4Djc" type="github">
  <diagram name="Page-1" id="FaZFcwo8a_R5qvg7F6oj">
    <mxGraphModel>
      <root>
        <mxCell id="0" />
        <mxCell id="1" parent="0" />
      </root>
    </mxGraphModel>
  </diagram>
</mxfile>
